<svg xmlns="http://www.w3.org/2000/svg" version="1.1" xmlns:xlink="http://www.w3.org/1999/xlink" xmlns:svgjs="http://svgjs.dev/svgjs" width="1000" height="999" viewBox="0 0 1000 999"><g transform="matrix(1,0,0,1,-0.215743440233382,-0.21552769679306039)"><svg viewBox="0 0 343 343" data-background-color="#ffffff" preserveAspectRatio="xMidYMid meet" height="999" width="1000" xmlns="http://www.w3.org/2000/svg" xmlns:xlink="http://www.w3.org/1999/xlink"><g id="tight-bounds" transform="matrix(1,0,0,1,0.0740000000000407,0.07400000000001228)"><svg viewBox="0 0 342.85155851775386 342.85155851775386" height="342.85155851775386" width="342.85155851775386"><g><svg></svg></g><g><svg viewBox="0 0 342.85155851775386 342.85155851775386" height="342.85155851775386" width="342.85155851775386"><g><path d="M0 171.426c0-94.676 76.75-171.426 171.426-171.426 94.676 0 171.426 76.75 171.426 171.426 0 94.676-76.75 171.426-171.426 171.426-94.676 0-171.426-76.75-171.426-171.426zM171.426 332.522c88.971 0 161.097-72.125 161.096-161.096 0-88.971-72.125-161.097-161.096-161.097-88.971 0-161.097 72.125-161.097 161.097 0 88.971 72.125 161.097 161.097 161.096z" data-fill-palette-color="tertiary" fill="#ffffff" stroke="transparent"></path><ellipse rx="164.56874808852186" ry="164.56874808852186" cx="171.42577925887693" cy="171.42577925887693" fill="#ffffff" stroke="transparent" stroke-width="0" fill-opacity="1" data-fill-palette-color="tertiary"></ellipse></g><g transform="matrix(1,0,0,1,64.84655864529837,114.15700332156607)"><svg viewBox="0 0 213.1584412271571 114.53755187462174" height="114.53755187462174" width="213.1584412271571"><g><svg viewBox="0 0 213.1584412271571 114.53755187462174" height="114.53755187462174" width="213.1584412271571"><g><svg viewBox="0 0 213.1584412271571 114.53755187462174" height="114.53755187462174" width="213.1584412271571"><g><svg viewBox="0 0 213.1584412271571 114.53755187462174" height="114.53755187462174" width="213.1584412271571"><g id="textblocktransform"><svg viewBox="0 0 213.1584412271571 114.53755187462174" height="114.53755187462174" width="213.1584412271571" id="textblock"><g><svg viewBox="0 0 213.1584412271571 114.53755187462174" height="114.53755187462174" width="213.1584412271571"><g transform="matrix(1,0,0,1,0,0)"><svg width="213.1584412271571" viewBox="4.95 -36 68.3 36.7" height="114.53755187462174" data-palette-color="#ffffff"><path d="M14.6-8.75L15.75-8.75 25.25-36 35-36 21.35 0 5.35 0 4.95-36 14.75-36 14.6-8.75ZM31.05-2.9L31.05-2.9Q31.05-6.1 32.45-7.58 33.85-9.05 36.9-9.05L36.9-9.05Q41.1-9.05 41.1-5.35L41.1-5.35Q41.1-2.2 39.67-0.75 38.25 0.7 35.2 0.7L35.2 0.7Q31.05 0.7 31.05-2.9ZM73.25 0L63.74 0 64.05-7.85 55.7-7.85 53.24 0 43.7 0 56.55-36 73.05-36 73.25 0ZM64.84-27.25L61.69-27.25 57.74-14.55 64.3-14.55 64.84-27.25Z" opacity="1" transform="matrix(1,0,0,1,0,0)" fill="#000000" class="undefined-text-0" data-fill-palette-color="quaternary" id="text-0"></path></svg></g></svg></g></svg></g></svg></g><g></g></svg></g></svg></g></svg></g></svg></g><defs></defs></svg><rect width="342.85155851775386" height="342.85155851775386" fill="none" stroke="none" visibility="hidden"></rect></g></svg></g></svg>